<mxfile host="app.diagrams.net" modified="2021-10-12T04:11:23.820Z" agent="5.0 (Windows NT 10.0; Win64; x64) AppleWebKit/537.36 (KHTML, like Gecko) Chrome/94.0.4606.71 Safari/537.36 Edg/94.0.992.38" etag="jblQ8xqAfT_rCZMj4bgC" version="15.5.1" type="github">
  <diagram id="Smptr2kGXRFBfZywhJkj" name="第 1 页">
    <mxGraphModel dx="1038" dy="556" grid="1" gridSize="10" guides="1" tooltips="1" connect="1" arrows="1" fold="1" page="1" pageScale="1" pageWidth="3300" pageHeight="4681" math="0" shadow="0">
      <root>
        <mxCell id="0" />
        <mxCell id="1" parent="0" />
        <mxCell id="4J3t695HHLVWcGbC1BqP-3" value="" style="edgeStyle=orthogonalEdgeStyle;rounded=0;orthogonalLoop=1;jettySize=auto;html=1;" edge="1" parent="1" source="4J3t695HHLVWcGbC1BqP-1" target="4J3t695HHLVWcGbC1BqP-2">
          <mxGeometry relative="1" as="geometry" />
        </mxCell>
        <mxCell id="4J3t695HHLVWcGbC1BqP-1" value="原始数据" style="rounded=1;whiteSpace=wrap;html=1;" vertex="1" parent="1">
          <mxGeometry x="40" y="180" width="120" height="60" as="geometry" />
        </mxCell>
        <mxCell id="4J3t695HHLVWcGbC1BqP-4" value="店铺信息表" style="rounded=1;whiteSpace=wrap;html=1;" vertex="1" parent="1">
          <mxGeometry x="290" y="280" width="120" height="60" as="geometry" />
        </mxCell>
        <mxCell id="4J3t695HHLVWcGbC1BqP-5" value="沉降状态明细表" style="rounded=1;whiteSpace=wrap;html=1;" vertex="1" parent="1">
          <mxGeometry x="290" y="80" width="120" height="60" as="geometry" />
        </mxCell>
        <mxCell id="4J3t695HHLVWcGbC1BqP-31" style="edgeStyle=orthogonalEdgeStyle;rounded=0;orthogonalLoop=1;jettySize=auto;html=1;exitX=1;exitY=0.5;exitDx=0;exitDy=0;" edge="1" parent="1" source="4J3t695HHLVWcGbC1BqP-6" target="4J3t695HHLVWcGbC1BqP-29">
          <mxGeometry relative="1" as="geometry">
            <Array as="points">
              <mxPoint x="790" y="160" />
              <mxPoint x="790" y="110" />
            </Array>
          </mxGeometry>
        </mxCell>
        <mxCell id="4J3t695HHLVWcGbC1BqP-38" style="edgeStyle=orthogonalEdgeStyle;rounded=0;orthogonalLoop=1;jettySize=auto;html=1;exitX=1;exitY=0.5;exitDx=0;exitDy=0;entryX=0;entryY=0.5;entryDx=0;entryDy=0;" edge="1" parent="1" source="4J3t695HHLVWcGbC1BqP-6" target="4J3t695HHLVWcGbC1BqP-26">
          <mxGeometry relative="1" as="geometry" />
        </mxCell>
        <mxCell id="4J3t695HHLVWcGbC1BqP-6" value="沉降" style="rounded=1;whiteSpace=wrap;html=1;" vertex="1" parent="1">
          <mxGeometry x="600" y="130" width="120" height="60" as="geometry" />
        </mxCell>
        <mxCell id="4J3t695HHLVWcGbC1BqP-22" style="edgeStyle=orthogonalEdgeStyle;rounded=0;orthogonalLoop=1;jettySize=auto;html=1;exitX=1;exitY=0.5;exitDx=0;exitDy=0;entryX=0;entryY=0.5;entryDx=0;entryDy=0;" edge="1" parent="1" source="4J3t695HHLVWcGbC1BqP-2" target="4J3t695HHLVWcGbC1BqP-6">
          <mxGeometry relative="1" as="geometry" />
        </mxCell>
        <mxCell id="4J3t695HHLVWcGbC1BqP-23" style="edgeStyle=orthogonalEdgeStyle;rounded=0;orthogonalLoop=1;jettySize=auto;html=1;exitX=1;exitY=0.5;exitDx=0;exitDy=0;entryX=0;entryY=0.5;entryDx=0;entryDy=0;" edge="1" parent="1" source="4J3t695HHLVWcGbC1BqP-2" target="4J3t695HHLVWcGbC1BqP-7">
          <mxGeometry relative="1" as="geometry" />
        </mxCell>
        <mxCell id="4J3t695HHLVWcGbC1BqP-2" value="沉降主表" style="rounded=1;whiteSpace=wrap;html=1;" vertex="1" parent="1">
          <mxGeometry x="290" y="180" width="120" height="60" as="geometry" />
        </mxCell>
        <mxCell id="4J3t695HHLVWcGbC1BqP-7" value="恢复" style="rounded=1;whiteSpace=wrap;html=1;" vertex="1" parent="1">
          <mxGeometry x="600" y="230" width="120" height="60" as="geometry" />
        </mxCell>
        <mxCell id="4J3t695HHLVWcGbC1BqP-26" value="修改主表为重试，等待下次请求" style="rounded=1;whiteSpace=wrap;html=1;" vertex="1" parent="1">
          <mxGeometry x="860" y="170" width="120" height="60" as="geometry" />
        </mxCell>
        <mxCell id="4J3t695HHLVWcGbC1BqP-34" style="edgeStyle=orthogonalEdgeStyle;rounded=0;orthogonalLoop=1;jettySize=auto;html=1;exitX=0.5;exitY=0;exitDx=0;exitDy=0;entryX=0.5;entryY=0;entryDx=0;entryDy=0;" edge="1" parent="1" source="4J3t695HHLVWcGbC1BqP-29" target="4J3t695HHLVWcGbC1BqP-5">
          <mxGeometry relative="1" as="geometry" />
        </mxCell>
        <mxCell id="4J3t695HHLVWcGbC1BqP-29" value="沉降中" style="rounded=1;whiteSpace=wrap;html=1;" vertex="1" parent="1">
          <mxGeometry x="860" y="80" width="120" height="60" as="geometry" />
        </mxCell>
        <mxCell id="4J3t695HHLVWcGbC1BqP-32" value="请求成功" style="text;html=1;align=center;verticalAlign=middle;resizable=0;points=[];autosize=1;strokeColor=none;fillColor=none;" vertex="1" parent="1">
          <mxGeometry x="790" y="90" width="60" height="20" as="geometry" />
        </mxCell>
        <mxCell id="4J3t695HHLVWcGbC1BqP-35" value="添加明细沉降中" style="text;html=1;align=center;verticalAlign=middle;resizable=0;points=[];autosize=1;strokeColor=none;fillColor=none;" vertex="1" parent="1">
          <mxGeometry x="440" y="40" width="100" height="20" as="geometry" />
        </mxCell>
        <mxCell id="4J3t695HHLVWcGbC1BqP-39" value="请求失败" style="text;html=1;align=center;verticalAlign=middle;resizable=0;points=[];autosize=1;strokeColor=none;fillColor=none;" vertex="1" parent="1">
          <mxGeometry x="790" y="210" width="60" height="20" as="geometry" />
        </mxCell>
        <mxCell id="4J3t695HHLVWcGbC1BqP-68" style="edgeStyle=orthogonalEdgeStyle;rounded=0;orthogonalLoop=1;jettySize=auto;html=1;exitX=1;exitY=0.5;exitDx=0;exitDy=0;entryX=0;entryY=0.5;entryDx=0;entryDy=0;" edge="1" parent="1" source="4J3t695HHLVWcGbC1BqP-40" target="4J3t695HHLVWcGbC1BqP-41">
          <mxGeometry relative="1" as="geometry" />
        </mxCell>
        <mxCell id="4J3t695HHLVWcGbC1BqP-69" style="edgeStyle=orthogonalEdgeStyle;rounded=0;orthogonalLoop=1;jettySize=auto;html=1;exitX=1;exitY=0.5;exitDx=0;exitDy=0;entryX=0;entryY=0.5;entryDx=0;entryDy=0;" edge="1" parent="1" source="4J3t695HHLVWcGbC1BqP-40" target="4J3t695HHLVWcGbC1BqP-42">
          <mxGeometry relative="1" as="geometry" />
        </mxCell>
        <mxCell id="4J3t695HHLVWcGbC1BqP-40" value="沉降定时任务" style="rounded=1;whiteSpace=wrap;html=1;" vertex="1" parent="1">
          <mxGeometry x="170" y="540" width="120" height="60" as="geometry" />
        </mxCell>
        <mxCell id="4J3t695HHLVWcGbC1BqP-78" style="edgeStyle=orthogonalEdgeStyle;curved=1;rounded=0;orthogonalLoop=1;jettySize=auto;html=1;exitX=1;exitY=0.5;exitDx=0;exitDy=0;entryX=0;entryY=0.5;entryDx=0;entryDy=0;" edge="1" parent="1" source="4J3t695HHLVWcGbC1BqP-41" target="4J3t695HHLVWcGbC1BqP-76">
          <mxGeometry relative="1" as="geometry" />
        </mxCell>
        <mxCell id="4J3t695HHLVWcGbC1BqP-79" style="edgeStyle=orthogonalEdgeStyle;curved=1;rounded=0;orthogonalLoop=1;jettySize=auto;html=1;exitX=1;exitY=0.5;exitDx=0;exitDy=0;entryX=0;entryY=0.5;entryDx=0;entryDy=0;" edge="1" parent="1" source="4J3t695HHLVWcGbC1BqP-41" target="4J3t695HHLVWcGbC1BqP-77">
          <mxGeometry relative="1" as="geometry" />
        </mxCell>
        <mxCell id="4J3t695HHLVWcGbC1BqP-41" value="沉降" style="rounded=1;whiteSpace=wrap;html=1;" vertex="1" parent="1">
          <mxGeometry x="375" y="500" width="120" height="60" as="geometry" />
        </mxCell>
        <mxCell id="4J3t695HHLVWcGbC1BqP-80" style="edgeStyle=orthogonalEdgeStyle;curved=1;rounded=0;orthogonalLoop=1;jettySize=auto;html=1;exitX=1;exitY=0.5;exitDx=0;exitDy=0;entryX=0;entryY=0.5;entryDx=0;entryDy=0;" edge="1" parent="1" source="4J3t695HHLVWcGbC1BqP-42" target="4J3t695HHLVWcGbC1BqP-76">
          <mxGeometry relative="1" as="geometry" />
        </mxCell>
        <mxCell id="4J3t695HHLVWcGbC1BqP-81" style="edgeStyle=orthogonalEdgeStyle;curved=1;rounded=0;orthogonalLoop=1;jettySize=auto;html=1;exitX=1;exitY=0.5;exitDx=0;exitDy=0;entryX=0;entryY=0.5;entryDx=0;entryDy=0;" edge="1" parent="1" source="4J3t695HHLVWcGbC1BqP-42" target="4J3t695HHLVWcGbC1BqP-77">
          <mxGeometry relative="1" as="geometry" />
        </mxCell>
        <mxCell id="4J3t695HHLVWcGbC1BqP-42" value="恢复" style="rounded=1;whiteSpace=wrap;html=1;" vertex="1" parent="1">
          <mxGeometry x="375" y="590" width="120" height="60" as="geometry" />
        </mxCell>
        <mxCell id="4J3t695HHLVWcGbC1BqP-46" style="edgeStyle=orthogonalEdgeStyle;rounded=0;orthogonalLoop=1;jettySize=auto;html=1;exitX=1;exitY=0.5;exitDx=0;exitDy=0;entryX=0;entryY=0.5;entryDx=0;entryDy=0;" edge="1" parent="1" source="4J3t695HHLVWcGbC1BqP-43" target="4J3t695HHLVWcGbC1BqP-44">
          <mxGeometry relative="1" as="geometry" />
        </mxCell>
        <mxCell id="4J3t695HHLVWcGbC1BqP-47" style="edgeStyle=orthogonalEdgeStyle;rounded=0;orthogonalLoop=1;jettySize=auto;html=1;exitX=1;exitY=0.5;exitDx=0;exitDy=0;" edge="1" parent="1" source="4J3t695HHLVWcGbC1BqP-43" target="4J3t695HHLVWcGbC1BqP-45">
          <mxGeometry relative="1" as="geometry" />
        </mxCell>
        <mxCell id="4J3t695HHLVWcGbC1BqP-43" value="获取数据定时任务" style="rounded=1;whiteSpace=wrap;html=1;" vertex="1" parent="1">
          <mxGeometry x="170" y="770" width="120" height="60" as="geometry" />
        </mxCell>
        <mxCell id="4J3t695HHLVWcGbC1BqP-52" style="rounded=0;orthogonalLoop=1;jettySize=auto;html=1;exitX=1;exitY=0.5;exitDx=0;exitDy=0;entryX=0;entryY=0.5;entryDx=0;entryDy=0;edgeStyle=orthogonalEdgeStyle;curved=1;" edge="1" parent="1" source="4J3t695HHLVWcGbC1BqP-44" target="4J3t695HHLVWcGbC1BqP-50">
          <mxGeometry relative="1" as="geometry" />
        </mxCell>
        <mxCell id="4J3t695HHLVWcGbC1BqP-56" value="转化" style="edgeLabel;html=1;align=center;verticalAlign=middle;resizable=0;points=[];" vertex="1" connectable="0" parent="4J3t695HHLVWcGbC1BqP-52">
          <mxGeometry x="-0.1079" y="-4" relative="1" as="geometry">
            <mxPoint x="14" y="14" as="offset" />
          </mxGeometry>
        </mxCell>
        <mxCell id="4J3t695HHLVWcGbC1BqP-44" value="原始数据转化为沉降表数据" style="rounded=1;whiteSpace=wrap;html=1;" vertex="1" parent="1">
          <mxGeometry x="340" y="720" width="190" height="60" as="geometry" />
        </mxCell>
        <mxCell id="4J3t695HHLVWcGbC1BqP-45" value="对齐当前状态和目标状态" style="rounded=1;whiteSpace=wrap;html=1;" vertex="1" parent="1">
          <mxGeometry x="340" y="820" width="190" height="60" as="geometry" />
        </mxCell>
        <mxCell id="4J3t695HHLVWcGbC1BqP-51" style="rounded=0;orthogonalLoop=1;jettySize=auto;html=1;exitX=0;exitY=0.5;exitDx=0;exitDy=0;entryX=1;entryY=0.5;entryDx=0;entryDy=0;edgeStyle=orthogonalEdgeStyle;curved=1;" edge="1" parent="1" source="4J3t695HHLVWcGbC1BqP-49" target="4J3t695HHLVWcGbC1BqP-44">
          <mxGeometry relative="1" as="geometry" />
        </mxCell>
        <mxCell id="4J3t695HHLVWcGbC1BqP-55" value="获取" style="edgeLabel;html=1;align=center;verticalAlign=middle;resizable=0;points=[];" vertex="1" connectable="0" parent="4J3t695HHLVWcGbC1BqP-51">
          <mxGeometry x="-0.3773" relative="1" as="geometry">
            <mxPoint as="offset" />
          </mxGeometry>
        </mxCell>
        <mxCell id="4J3t695HHLVWcGbC1BqP-49" value="原始数据" style="rounded=1;whiteSpace=wrap;html=1;" vertex="1" parent="1">
          <mxGeometry x="860" y="660" width="120" height="60" as="geometry" />
        </mxCell>
        <mxCell id="4J3t695HHLVWcGbC1BqP-54" style="edgeStyle=orthogonalEdgeStyle;rounded=0;orthogonalLoop=1;jettySize=auto;html=1;exitX=0;exitY=0.5;exitDx=0;exitDy=0;entryX=0.437;entryY=1.02;entryDx=0;entryDy=0;entryPerimeter=0;curved=1;" edge="1" parent="1" source="4J3t695HHLVWcGbC1BqP-50" target="4J3t695HHLVWcGbC1BqP-40">
          <mxGeometry relative="1" as="geometry">
            <Array as="points">
              <mxPoint x="730" y="800" />
              <mxPoint x="730" y="690" />
              <mxPoint x="222" y="690" />
            </Array>
          </mxGeometry>
        </mxCell>
        <mxCell id="4J3t695HHLVWcGbC1BqP-58" value="获取待沉降、待恢复数据" style="edgeLabel;html=1;align=center;verticalAlign=middle;resizable=0;points=[];" vertex="1" connectable="0" parent="4J3t695HHLVWcGbC1BqP-54">
          <mxGeometry x="0.1912" y="2" relative="1" as="geometry">
            <mxPoint as="offset" />
          </mxGeometry>
        </mxCell>
        <mxCell id="4J3t695HHLVWcGbC1BqP-87" style="edgeStyle=orthogonalEdgeStyle;curved=1;rounded=0;orthogonalLoop=1;jettySize=auto;html=1;exitX=0.5;exitY=1;exitDx=0;exitDy=0;entryX=1;entryY=0.5;entryDx=0;entryDy=0;" edge="1" parent="1" source="4J3t695HHLVWcGbC1BqP-50" target="4J3t695HHLVWcGbC1BqP-45">
          <mxGeometry relative="1" as="geometry" />
        </mxCell>
        <mxCell id="4J3t695HHLVWcGbC1BqP-50" value="沉降主表" style="rounded=1;whiteSpace=wrap;html=1;" vertex="1" parent="1">
          <mxGeometry x="860" y="770" width="120" height="60" as="geometry" />
        </mxCell>
        <mxCell id="4J3t695HHLVWcGbC1BqP-65" style="edgeStyle=orthogonalEdgeStyle;rounded=0;orthogonalLoop=1;jettySize=auto;html=1;exitX=1;exitY=0.5;exitDx=0;exitDy=0;entryX=1;entryY=0.5;entryDx=0;entryDy=0;" edge="1" parent="1" source="4J3t695HHLVWcGbC1BqP-59" target="4J3t695HHLVWcGbC1BqP-50">
          <mxGeometry relative="1" as="geometry" />
        </mxCell>
        <mxCell id="4J3t695HHLVWcGbC1BqP-59" value="修改主表明细为重试" style="rounded=1;whiteSpace=wrap;html=1;" vertex="1" parent="1">
          <mxGeometry x="760" y="400" width="120" height="60" as="geometry" />
        </mxCell>
        <mxCell id="4J3t695HHLVWcGbC1BqP-60" value="沉降状态明细表" style="rounded=1;whiteSpace=wrap;html=1;" vertex="1" parent="1">
          <mxGeometry x="860" y="540" width="120" height="60" as="geometry" />
        </mxCell>
        <mxCell id="4J3t695HHLVWcGbC1BqP-67" value="修改" style="text;html=1;align=center;verticalAlign=middle;resizable=0;points=[];autosize=1;strokeColor=none;fillColor=none;" vertex="1" parent="1">
          <mxGeometry x="660" y="840" width="40" height="20" as="geometry" />
        </mxCell>
        <mxCell id="4J3t695HHLVWcGbC1BqP-85" style="edgeStyle=orthogonalEdgeStyle;curved=1;rounded=0;orthogonalLoop=1;jettySize=auto;html=1;exitX=1;exitY=0.5;exitDx=0;exitDy=0;" edge="1" parent="1" source="4J3t695HHLVWcGbC1BqP-76" target="4J3t695HHLVWcGbC1BqP-60">
          <mxGeometry relative="1" as="geometry" />
        </mxCell>
        <mxCell id="4J3t695HHLVWcGbC1BqP-88" style="edgeStyle=orthogonalEdgeStyle;curved=1;rounded=0;orthogonalLoop=1;jettySize=auto;html=1;exitX=1;exitY=0.5;exitDx=0;exitDy=0;entryX=0;entryY=0.5;entryDx=0;entryDy=0;" edge="1" parent="1" source="4J3t695HHLVWcGbC1BqP-76" target="4J3t695HHLVWcGbC1BqP-50">
          <mxGeometry relative="1" as="geometry" />
        </mxCell>
        <mxCell id="4J3t695HHLVWcGbC1BqP-89" value="修改主表信息" style="edgeLabel;html=1;align=center;verticalAlign=middle;resizable=0;points=[];" vertex="1" connectable="0" parent="4J3t695HHLVWcGbC1BqP-88">
          <mxGeometry x="-0.127" y="-3" relative="1" as="geometry">
            <mxPoint as="offset" />
          </mxGeometry>
        </mxCell>
        <mxCell id="4J3t695HHLVWcGbC1BqP-76" value="请求成功" style="rounded=1;whiteSpace=wrap;html=1;" vertex="1" parent="1">
          <mxGeometry x="550" y="500" width="120" height="60" as="geometry" />
        </mxCell>
        <mxCell id="4J3t695HHLVWcGbC1BqP-84" style="edgeStyle=orthogonalEdgeStyle;curved=1;rounded=0;orthogonalLoop=1;jettySize=auto;html=1;exitX=1;exitY=0.5;exitDx=0;exitDy=0;entryX=0.5;entryY=1;entryDx=0;entryDy=0;" edge="1" parent="1" source="4J3t695HHLVWcGbC1BqP-77" target="4J3t695HHLVWcGbC1BqP-59">
          <mxGeometry relative="1" as="geometry" />
        </mxCell>
        <mxCell id="4J3t695HHLVWcGbC1BqP-77" value="请求失败" style="rounded=1;whiteSpace=wrap;html=1;" vertex="1" parent="1">
          <mxGeometry x="550" y="590" width="120" height="60" as="geometry" />
        </mxCell>
        <mxCell id="4J3t695HHLVWcGbC1BqP-86" value="添加数据" style="text;html=1;align=center;verticalAlign=middle;resizable=0;points=[];autosize=1;strokeColor=none;fillColor=none;" vertex="1" parent="1">
          <mxGeometry x="705" y="510" width="60" height="20" as="geometry" />
        </mxCell>
        <mxCell id="4J3t695HHLVWcGbC1BqP-90" value="超过5次不再请求" style="text;html=1;align=center;verticalAlign=middle;resizable=0;points=[];autosize=1;strokeColor=none;fillColor=none;" vertex="1" parent="1">
          <mxGeometry x="895" y="400" width="110" height="20" as="geometry" />
        </mxCell>
      </root>
    </mxGraphModel>
  </diagram>
</mxfile>
